<svg xmlns="http://www.w3.org/2000/svg" version="1.1" viewBox="151.04 157.89 354.49 301.36">
  <!-- Generator: Adobe Illustrator 29.2.1, SVG Export Plug-In . SVG Version: 2.1.0 Build 116)  -->
  <defs>
    <style>
      .st0 {
        stroke: #020202;
      }

      .st0, .st1 {
        fill: none;
        stroke-miterlimit: 100;
        stroke-width: 4px;
      }

      .st2 {
        font-family: Verdana-Bold, Verdana;
        font-size: 45px;
        font-weight: 700;
      }

      .st3 {
        fill-rule: evenodd;
      }

      .st1 {
        stroke: #000;
      }
    </style>
  </defs>
  <g id="MAKERSPACE">
    <text class="st2" transform="translate(157.72 328.8)"><tspan x="0" y="0">MAKERSPACE</tspan></text>
  </g>
  <g id="Layer_7_xA0_Image">
    <g>
      <g>
        <path d="M369.46,268.37c-2.67-4.58-7.34-2.89-11.8-3.2l-.63-3.13-9.45,1.94c.94,5.56,2.72,11.07,2.4,16.77h17.64c3.6-2.99,4.16-8.41,1.84-12.38ZM365.43,278.25c-.82.72-6.12.62-6.88-.03-.87-.74-1.01-4.32-.44-4.93.97-1.03,4.01-.76,5.25-.68.86.05,1.71.08,2.49,1.28.47.74.43,3.61-.41,4.35Z"/>
        <path d="M366.54,264.69l-6.97-.12-.64-3-10.03-.48-.59-.36c.47-.68.51-1.38,1.07-2.05,1.62-1.96,9.72-2.98,12.19-2.57,3.76.63,4.81,5.4,4.98,8.57Z"/>
        <g>
          <path d="M314.31,259.41c-1.88.2-3.84-1.55-5.61-2.26-2.1-.83-5.79-1.71-7.98-1.27-1.25.26-2.43,1.69-2.59,2.94-.23,1.96.22,7.7.51,9.81.1.7.56,1.55,1.05,2.06.84.88,6.94,4.91,8.16,5.51,1.92.93,5.73-.2,7.81-.84,3.01-.93,3.14-2.07,3.36-5.04.22-3.06.39-6.5.49-9.57.18-5.26-3.03-1.57-5.2-1.34ZM312.97,271.95c-1.48.54-2.71.89-4.16.18-.75-.38-5.3-3.35-5.76-3.84-.35-.38-.5-.84-.57-1.34-.24-1.67-.48-4.58-.49-6.24,0-.38.14-.88.58-.95.97-.15,3.33.49,4.34.86,1.24.45,2.18,1.23,3.31,1.72,2.04.9,4.72.71,4.97,3.42.22,2.38.31,5.27-2.22,6.19Z"/>
          <path d="M301.86,280.75c-1.61-.44-.15-2.55-.4-3.42-.17-.59-1.33-1.03-1.4-1.74-.07-.66.59-1.28.45-2.09-.17-.95-1.53-1.27-1.4-2.33,2.5,1.74,5.03,4.44,8.08,5.46.54.18,1.13.62,1.69.71,2.28.37,7.16-.92,9.4-1.78l-.22,5.2h-16.2Z"/>
        </g>
      </g>
      <g>
        <path d="M341.1,258.7h-16.56c.09-1.84.35-4.99-.43-6.64-1.79-3.76-8.79-4.84-12.29-3.31-2.89,1.27-.99,3.27-3.76,4.63-1.04.51-4.24.83-5.44.75-1.91-.13-4-1.74-4.24-3.69-.34-2.77-.34-11.14,0-13.91.17-1.42,1.47-2.94,2.83-3.41,1.8-.61,5.81-.64,7.26.77,1.52,1.48.27,2.56,3.29,3.66,2.3.84,3.68.6,5.75-.62s4.51-4.58,6.67-4.84c2.93-.36,7.23.02,10.34.01,2.8,0,5.21-.33,8.14,0,13.93,1.53,24.56,12.4,31.28,23.88l-.07.31c-.63.44-1.89,2.32-2.6,2.14-.22-.06-2.96-2.46-3.6-2.9-5.34-3.73-14.31-7.64-20.93-7.13-2.48.19-5.64,2.19-5.64,4.91v5.39Z"/>
        <path d="M323.82,280.75l.72-17.97c5.42-.31,10.88-.3,16.32-.48l.48,18.45h-17.52Z"/>
        <path d="M358.69,274.1c.76-.8,6.22-.94,6.61.34.21.7.25,2.67-.49,3.01-.64.3-4.98.31-5.65,0-.89-.41-.94-2.86-.47-3.36Z"/>
      </g>
    </g>
  </g>
  <g id="Layer_10">
    <rect class="st1" x="153.04" y="285.45" width="350.49" height="55.44"/>
  </g>
  <g id="Layer_11">
    <path class="st0" d="M237.37,279.77c2.02-6,5.29-13.74,10.71-21.9,4.23-6.36,8.67-11.33,12.52-15.06"/>
    <path class="st0" d="M422.03,279.77c-2.11-6.16-5.53-14.11-11.19-22.49-4.42-6.54-8.44-11.04-12.45-14.87"/>
    <path class="st0" d="M240.87,346.56c14.77,34.03,47.34,56.85,83.73,58.61,39.45,1.91,76.6-21.26,92.94-58.19"/>
    <polygon points="262.97 243.31 261.4 244.83 259.21 241.38 262.97 243.31"/>
    <polyline points="397.01 243.87 398.13 239.79 399.77 240.99"/>
    <polygon points="235.48 279.13 235.13 280.33 239.19 280.4 239.27 280.4 235.48 279.13"/>
    <polygon points="423.92 279.12 420.14 280.42 424.29 280.49 423.92 279.12"/>
    <polygon points="420.02 346.21 415.71 346.17 419.37 347.79 420.02 346.21"/>
    <polyline points="239.04 347.38 242.7 345.77 238.39 345.73"/>
  </g>
  <g id="Layer_12">
    <path class="st3" d="M374.49,349.23c-1.71,1.63-3.24,3.93-5.77,3.73-3.03-.25-7.12.71-7.2,1.71-.14,2.05,2.61,2.95,5.05,3.63-2.07,1.22-4.2,3.14-6.61,2.41-2.87-.88-7.1-.85-7.44.12-.71,1.95,1.7,3.41,3.92,4.59-2.36.75-4.94,2.16-7.07.96-2.55-1.48-6.67-2.33-7.26-1.46-1.22,1.76.74,3.68,2.55,5.3-2.47.21-5.36,1.04-7.09-.59-2.1-1.98-5.88-3.65-6.67-2.94-1.65,1.45-.28,3.73,1.05,5.68-2.47-.3-5.51-.12-6.75-2.08-1.51-2.35-4.69-4.78-5.68-4.25-1.99,1.05-1.28,3.56-.51,5.74-2.33-.83-5.31-1.28-5.99-3.43-.82-2.61-3.26-5.64-4.34-5.34-2.24.6-2.21,3.18-2.07,5.46-2.04-1.3-4.8-2.37-4.88-4.61-.09-2.71-1.65-6.15-2.78-6.1-2.33.12-3.01,2.63-3.46,4.88-1.65-1.68-4.03-3.33-3.52-5.51.65-2.62.08-6.33-1.02-6.51-2.3-.38-3.67,1.9-4.72,3.99-1.1-1.95-3-4.06-1.9-6.09.42-.75.75-1.62.99-2.49h83.69c-.31.28-.48.55-.43.78.43,2.03,3.32,2.33,5.91,2.46Z"/>
  </g>
  <g id="Layer_15">
    <path id="Gear-3" class="st3" d="M187.41,279.21l9.67,3.73c1.21.47,2.15,1.39,2.65,2.51h22.58c10.68-49.78,55.13-87.02,108.19-86.57,51.96.45,95.63,37.56,106.26,86.57h22.6c.5-1.12,1.44-2.04,2.65-2.51l9.67-3.73c2.28-.88,3.53-3.33,2.91-5.69l-1.85-7.08c-.62-2.39-2.95-3.91-5.39-3.53l-10.27,1.62c-2.23.35-4.4-.9-5.21-3-.81-2.09-1.66-4.15-2.57-6.19-.92-2.07-.27-4.49,1.56-5.81l8.59-6.26c1.97-1.44,2.55-4.12,1.35-6.24l-3.58-6.32c-1.21-2.15-3.86-3.03-6.12-2.02l-9.77,4.34c-2.06.91-4.48.27-5.81-1.56-1.31-1.81-2.68-3.58-4.08-5.32-1.42-1.75-1.42-4.26,0-6.02l6.92-8.55c1.53-1.89,1.4-4.63-.3-6.37l-5.02-5.14c-1.73-1.77-4.52-1.93-6.45-.37l-8.61,6.97c-1.76,1.42-4.27,1.42-6.02,0-1.74-1.4-3.51-2.77-5.32-4.08-1.83-1.33-2.47-3.75-1.56-5.81l4.65-10.46c.98-2.22.15-4.83-1.95-6.07l-6.1-3.61c-2.13-1.26-4.86-.69-6.32,1.3l-6.78,9.31c-1.32,1.83-3.74,2.48-5.81,1.56-2.04-.9-4.1-1.76-6.19-2.56-2.1-.81-3.35-2.98-3-5.21l1.83-11.64c.37-2.42-1.12-4.73-3.48-5.37l-6.77-1.85c-2.37-.66-4.85.6-5.74,2.9l-4.25,11.02c-.81,2.11-2.98,3.36-5.21,3.01-2.2-.35-4.42-.64-6.64-.87-2.25-.24-4.02-2.02-4.25-4.26l-1.26-11.8c-.25-2.44-2.31-4.29-4.77-4.29h-7c-2.45,0-4.51,1.85-4.77,4.29l-1.25,11.8c-.24,2.25-2.01,4.02-4.25,4.26-2.23.23-4.44.52-6.65.87-2.23.36-4.4-.9-5.21-3.01l-4.24-11.02c-.89-2.3-3.37-3.55-5.75-2.9l-6.76,1.85c-2.36.64-3.85,2.95-3.48,5.37l1.83,11.64c.35,2.23-.9,4.4-3,5.21-2.09.8-4.16,1.66-6.2,2.57-2.06.91-4.48.26-5.81-1.57l-6.78-9.31c-1.45-1.99-4.18-2.56-6.31-1.3l-6.1,3.6c-2.1,1.24-2.94,3.85-1.95,6.07l4.65,10.47c.91,2.06.27,4.48-1.56,5.81-1.81,1.31-3.58,2.68-5.32,4.08-1.75,1.42-4.26,1.42-6.02,0l-8.61-6.97c-1.93-1.56-4.72-1.4-6.45.37l-5.02,5.14c-1.7,1.74-1.83,4.48-.3,6.37l6.91,8.56c1.42,1.75,1.42,4.25.01,6.01-1.41,1.74-2.77,3.51-4.08,5.32-1.33,1.83-3.75,2.47-5.81,1.55l-9.77-4.33c-2.26-1.01-4.91-.13-6.12,2.02l-3.58,6.32c-1.2,2.12-.62,4.8,1.35,6.24l8.59,6.26c1.83,1.32,2.48,3.75,1.56,5.81-.91,2.04-1.77,4.1-2.57,6.19-.81,2.1-2.98,3.35-5.21,3l-10.27-1.62c-2.44-.38-4.77,1.14-5.39,3.53l-1.85,7.08c-.62,2.36.63,4.81,2.91,5.69ZM474.51,340.89h-40.13c-13.88,45.08-56.05,77.77-105.79,77.36-48.65-.42-90.04-32.98-103.83-77.36h-40.18c-.28.85-.32,1.79-.08,2.72l1.85,7.08c.62,2.39,2.95,3.91,5.39,3.53l10.27-1.62c2.23-.35,4.4.9,5.21,3,.8,2.09,1.66,4.16,2.57,6.2.92,2.06.27,4.49-1.56,5.81l-8.59,6.26c-1.97,1.44-2.55,4.12-1.35,6.24l3.58,6.31c1.21,2.15,3.86,3.03,6.12,2.02l9.77-4.33c2.06-.92,4.48-.28,5.81,1.55,1.31,1.81,2.67,3.58,4.08,5.32,1.41,1.76,1.41,4.26-.01,6.01l-6.91,8.56c-1.53,1.89-1.4,4.63.3,6.37l5.02,5.14c1.73,1.77,4.52,1.93,6.45.38l8.62-6.97c1.75-1.42,4.25-1.42,6.01,0,1.74,1.41,3.51,2.77,5.32,4.08,1.83,1.33,2.47,3.75,1.56,5.81l-4.65,10.47c-.99,2.22-.15,4.83,1.95,6.07l6.1,3.6c2.13,1.26,4.86.69,6.32-1.3l6.77-9.31c1.33-1.82,3.74-2.48,5.81-1.56,2.04.91,4.11,1.76,6.2,2.57,2.1.81,3.35,2.98,3,5.21l-1.82,11.63c-.38,2.41,1.11,4.73,3.47,5.37l6.76,1.85c2.38.65,4.86-.6,5.75-2.9l4.24-11.02c.81-2.11,2.98-3.37,5.21-3.01,2.21.35,4.42.64,6.65.87,2.24.24,4.01,2.01,4.25,4.26l1.25,11.8c.26,2.44,2.32,4.29,4.77,4.29h7c2.46,0,4.52-1.85,4.77-4.29l1.26-11.8c.23-2.24,2-4.02,4.25-4.26,2.22-.23,4.44-.52,6.64-.87,2.23-.35,4.4.9,5.21,3.01l4.25,11.02c.89,2.3,3.37,3.56,5.74,2.9l6.77-1.85c2.36-.64,3.85-2.96,3.47-5.37l-1.82-11.63c-.35-2.23.9-4.4,3-5.21,2.09-.81,4.15-1.66,6.19-2.57,2.07-.91,4.48-.26,5.81,1.56l6.78,9.31c1.46,2,4.2,2.57,6.32,1.31l6.11-3.62c2.09-1.24,2.93-3.85,1.94-6.07l-4.64-10.46c-.92-2.06-.28-4.48,1.55-5.81,1.81-1.31,3.58-2.67,5.32-4.08,1.76-1.41,4.26-1.41,6.01,0l8.62,6.97c1.93,1.55,4.72,1.39,6.45-.38l5.02-5.14c1.7-1.74,1.83-4.48.3-6.37l-6.92-8.55c-1.42-1.76-1.42-4.27,0-6.02,1.4-1.74,2.77-3.51,4.08-5.32,1.33-1.83,3.75-2.47,5.81-1.56l9.77,4.34c2.26,1.01,4.91.13,6.12-2.02l3.58-6.31c1.2-2.12.62-4.8-1.35-6.24l-8.59-6.26c-1.83-1.33-2.48-3.74-1.56-5.81.9-2.04,1.76-4.11,2.57-6.2.81-2.1,2.98-3.35,5.21-3l10.27,1.62c2.44.38,4.77-1.14,5.39-3.53l1.85-7.08c.24-.93.2-1.87-.08-2.72Z"/>
    <line class="st1" x1="459.36" y1="285.45" x2="436.76" y2="285.45"/>
    <line class="st1" x1="474.51" y1="340.89" x2="434.38" y2="340.89"/>
  </g>
  <g id="Layer_9">
    <g>
      <path d="M277.8,219.74l4.26,13.18-3.85,2.91-7.55-4.98,2.78,8.58-3.84,2.9-11.52-7.7,3.63-2.74,7.5,5.63-2.94-9.07,3.46-2.62,7.79,5.41-3.26-8.83,3.54-2.68Z"/>
      <path d="M301.53,223.66l-4.11,1.82-2.15-1.94-5.71,2.53v2.9s-4.02,1.78-4.02,1.78l.4-14.49,4.58-2.03,11,9.44ZM293.34,221.77l-3.8-3.45v5.13s3.8-1.68,3.8-1.68Z"/>
      <path d="M316.09,215.52c.36,1.58.01,2.93-1.03,4.05-1.05,1.12-2.78,1.96-5.19,2.51-2.41.55-4.33.54-5.75-.02-1.43-.56-2.32-1.62-2.67-3.19l-1.85-8.15,4.27-.97,1.81,7.96c.2.89.59,1.49,1.17,1.82.58.33,1.4.37,2.48.12,1.06-.24,1.79-.63,2.19-1.16.4-.53.49-1.25.28-2.17l-1.81-7.96,4.27-.97,1.85,8.14Z"/>
      <path d="M335.74,219.33l-5.35.18-5.22-5.07-.98,1,.14,4.27-4.35.14-.43-13.08,4.35-.14.19,5.93,5.83-6.12,5.04-.17-6.4,6.27,7.15,6.8Z"/>
      <path d="M348.86,221.37l-12.09-1.72,1.84-12.96,12.09,1.72-.36,2.51-7.8-1.11-.32,2.24,7.24,1.03-.36,2.51-7.24-1.03-.46,3.2,7.8,1.11-.36,2.51Z"/>
      <path d="M365.48,222.18c-.39,1.23-1.38,2.01-2.97,2.35-1.59.34-3.53.14-5.84-.6-1.33-.43-2.46-.89-3.39-1.39s-1.78-1.03-2.56-1.58l.96-2.99.45.15c.69.8,1.51,1.52,2.49,2.14s1.95,1.09,2.92,1.41c.25.08.59.17,1.01.27s.77.15,1.06.15c.35,0,.65-.04.9-.13.25-.08.43-.27.52-.57.09-.27.01-.56-.22-.85-.24-.29-.62-.59-1.17-.88-.57-.31-1.17-.61-1.82-.93s-1.23-.64-1.78-.98c-1.24-.77-2.07-1.55-2.48-2.32s-.47-1.59-.19-2.46c.37-1.16,1.35-1.89,2.92-2.2,1.58-.3,3.42-.12,5.53.56,1.06.34,2.08.75,3.06,1.24.98.49,1.81.98,2.49,1.46l-.92,2.87-.44-.14c-.52-.61-1.21-1.2-2.06-1.77s-1.77-1.01-2.75-1.33c-.35-.11-.7-.2-1.05-.28s-.7-.11-1.05-.11c-.31,0-.59.04-.84.15-.26.11-.42.27-.49.48-.11.33-.02.63.24.91s.83.64,1.68,1.07c.56.28,1.1.56,1.61.82s1.06.57,1.64.93c1.13.71,1.9,1.42,2.32,2.15s.48,1.52.21,2.38Z"/>
      <path d="M379.19,234.03l-3.82-2.08,2.76-5.06-5.65-3.07-2.76,5.06-3.82-2.08,6.25-11.5,3.82,2.08-2.29,4.21,5.65,3.07,2.29-4.21,3.82,2.08-6.25,11.5Z"/>
      <path d="M393.7,245.78l-3.46-2.87.79-2.79-4.81-3.99-2.59,1.28-3.38-2.8,13.16-6.09,3.86,3.2-3.56,14.05ZM391.75,237.61l1.4-4.93-4.59,2.28,3.2,2.65Z"/>
    </g>
    <text/>
  </g>
</svg>